<?xml version="1.0" encoding="UTF-8" standalone="no"?>
<!DOCTYPE svg PUBLIC "-//W3C//DTD SVG 1.1//EN"
 "http://www.w3.org/Graphics/SVG/1.1/DTD/svg11.dtd">
<!-- Generated by graphviz version 2.44.0 (0)
 -->
<!-- Title: G Pages: 1 -->
<svg width="174pt" height="279pt"
 viewBox="0.00 0.00 173.62 279.28" xmlns="http://www.w3.org/2000/svg" xmlns:xlink="http://www.w3.org/1999/xlink">
<g id="graph0" class="graph" transform="scale(1 1) rotate(0) translate(4 275.28)">
<title>G</title><style>.edge>path:hover{stroke-width:8}</style>
<polygon fill="white" stroke="transparent" points="-4,4 -4,-275.28 169.62,-275.28 169.62,4 -4,4"/>
<!-- mkdocstrings_extension -->
<g id="node1" class="node">
<title>mkdocstrings_extension</title><style>.edge>path:hover{stroke-width:8}</style>
<ellipse fill="#ac4949" stroke="black" cx="60.81" cy="-171.64" rx="60.62" ry="21.43"/>
<text text-anchor="middle" x="60.81" y="-174.64" font-family="Helvetica,sans-Serif" font-size="10.00" fill="#ffffff">mkdocstrings.</text>
<text text-anchor="middle" x="60.81" y="-163.64" font-family="Helvetica,sans-Serif" font-size="10.00" fill="#ffffff">extension</text>
</g>
<!-- mkdocstrings_plugin -->
<g id="node3" class="node">
<title>mkdocstrings_plugin</title><style>.edge>path:hover{stroke-width:8}</style>
<ellipse fill="#a44646" stroke="black" cx="104.81" cy="-93.21" rx="60.62" ry="21.43"/>
<text text-anchor="middle" x="104.81" y="-96.21" font-family="Helvetica,sans-Serif" font-size="10.00" fill="#ffffff">mkdocstrings.</text>
<text text-anchor="middle" x="104.81" y="-85.21" font-family="Helvetica,sans-Serif" font-size="10.00" fill="#ffffff">plugin</text>
</g>
<!-- mkdocstrings_extension&#45;&gt;mkdocstrings_plugin -->
<g id="edge1" class="edge">
<title>mkdocstrings_extension&#45;&gt;mkdocstrings_plugin</title><style>.edge>path:hover{stroke-width:8}</style>
<path fill="none" stroke="black" d="M72.37,-150.56C77.22,-142.13 82.95,-132.18 88.24,-123"/>
<polygon fill="#ac4949" stroke="black" points="91.37,-124.57 93.33,-114.16 85.31,-121.08 91.37,-124.57"/>
</g>
<!-- mkdocstrings -->
<g id="node2" class="node">
<title>mkdocstrings</title><style>.edge>path:hover{stroke-width:8}</style>
<ellipse fill="#d02424" stroke="black" cx="104.81" cy="-18" rx="48.72" ry="18"/>
<text text-anchor="middle" x="104.81" y="-15.5" font-family="Helvetica,sans-Serif" font-size="10.00" fill="#ffffff">mkdocstrings</text>
</g>
<!-- mkdocstrings_plugin&#45;&gt;mkdocstrings -->
<g id="edge4" class="edge">
<title>mkdocstrings_plugin&#45;&gt;mkdocstrings</title><style>.edge>path:hover{stroke-width:8}</style>
<path fill="none" stroke="black" d="M104.81,-71.82C104.81,-63.97 104.81,-54.86 104.81,-46.45"/>
<polygon fill="#a44646" stroke="black" points="108.31,-46.31 104.81,-36.31 101.31,-46.31 108.31,-46.31"/>
</g>
<!-- mkdocstrings_handlers -->
<g id="node4" class="node">
<title>mkdocstrings_handlers</title><style>.edge>path:hover{stroke-width:8}</style>
<ellipse fill="#ce3b3b" stroke="black" cx="104.81" cy="-250.07" rx="60.62" ry="21.43"/>
<text text-anchor="middle" x="104.81" y="-253.07" font-family="Helvetica,sans-Serif" font-size="10.00" fill="#ffffff">mkdocstrings.</text>
<text text-anchor="middle" x="104.81" y="-242.07" font-family="Helvetica,sans-Serif" font-size="10.00" fill="#ffffff">handlers</text>
</g>
<!-- mkdocstrings_handlers&#45;&gt;mkdocstrings_extension -->
<g id="edge2" class="edge">
<title>mkdocstrings_handlers&#45;&gt;mkdocstrings_extension</title><style>.edge>path:hover{stroke-width:8}</style>
<path fill="none" stroke="black" d="M93.25,-228.99C88.4,-220.56 82.67,-210.6 77.38,-201.42"/>
<polygon fill="#ce3b3b" stroke="black" points="80.32,-199.51 72.29,-192.59 74.25,-203 80.32,-199.51"/>
</g>
<!-- mkdocstrings_handlers&#45;&gt;mkdocstrings_plugin -->
<g id="edge3" class="edge">
<title>mkdocstrings_handlers&#45;&gt;mkdocstrings_plugin</title><style>.edge>path:hover{stroke-width:8}</style>
<path fill="none" stroke="black" d="M116.68,-229C122.15,-218.59 128.04,-205.45 130.81,-192.85 134.86,-174.44 134.86,-168.84 130.81,-150.43 128.8,-141.27 125.14,-131.83 121.19,-123.36"/>
<polygon fill="#ce3b3b" stroke="black" points="124.26,-121.68 116.68,-114.28 117.99,-124.8 124.26,-121.68"/>
</g>
</g>
</svg>
